<svg height="480pt" viewBox="0 0 480 480" width="480pt" xmlns="http://www.w3.org/2000/svg" xmlns:xlink="http://www.w3.org/1999/xlink"><linearGradient id="a"><stop offset="0" stop-color="#fff33b"/><stop offset=".014" stop-color="#fee72e"/><stop offset=".042" stop-color="#fed51b"/><stop offset=".07" stop-color="#fdca10"/><stop offset=".1" stop-color="#fdc70c"/><stop offset=".4" stop-color="#f3903f"/><stop offset=".8" stop-color="#ed683c"/><stop offset="1" stop-color="#e93e3a"/></linearGradient><linearGradient id="b" gradientUnits="userSpaceOnUse" x1="240" x2="240" xlink:href="#a" y1="-24" y2="528.056"/><linearGradient id="c" gradientUnits="userSpaceOnUse" x1="216" x2="216" xlink:href="#a" y1="-24" y2="528.056"/><path d="m456 432v-216c0-119.292969-96.707031-216-216-216s-216 96.707031-216 216v216c-13.253906 0-24 10.746094-24 24s10.746094 24 24 24h432c13.253906 0 24-10.746094 24-24s-10.746094-24-24-24zm-416-216c0-110.457031 89.542969-200 200-200s200 89.542969 200 200v168h-24v-40c0-4.417969-3.582031-8-8-8h-352c-4.417969 0-8 3.582031-8 8s3.582031 8 8 8h344v40c0 4.417969 3.582031 8 8 8h32v32h-400zm416 248h-432c-4.417969 0-8-3.582031-8-8s3.582031-8 8-8h432c4.417969 0 8 3.582031 8 8s-3.582031 8-8 8zm0 0" fill="url(#b)"/><path d="m128 176h80v136c0 4.417969 3.582031 8 8 8h48c4.417969 0 8-3.582031 8-8v-136h80c4.417969 0 8-3.582031 8-8v-48c0-4.417969-3.582031-8-8-8h-80v-56c0-4.417969-3.582031-8-8-8h-48c-4.417969 0-8 3.582031-8 8v56h-80c-4.417969 0-8 3.582031-8 8v48c0 4.417969 3.582031 8 8 8zm8-48h80c4.417969 0 8-3.582031 8-8v-56h32v56c0 4.417969 3.582031 8 8 8h80v32h-80c-4.417969 0-8 3.582031-8 8v136h-32v-136c0-4.417969-3.582031-8-8-8h-80zm0 0" fill="url(#b)"/><path d="m344 384h-256c-4.417969 0-8 3.582031-8 8s3.582031 8 8 8h256c4.417969 0 8-3.582031 8-8s-3.582031-8-8-8zm0 0" fill="url(#c)"/></svg>